<svg width="109" height="29" viewBox="0 0 109 29" fill="none" xmlns="http://www.w3.org/2000/svg">
<g id="Group 1">
<path id="Vector" d="M13.6449 18.8708C13.6449 21.6768 13.6449 24.4649 13.6449 27.2947C10.5059 27.3066 7.71776 26.3316 5.27443 24.4412C2.52787 22.3069 0.803864 19.4771 0.221267 16.0469C-0.498064 11.7725 0.530402 7.88463 3.39588 4.62678C6.0592 1.60681 9.47152 0.0670305 13.5497 0.00166504C21.6111 -0.123207 27.5262 6.7967 27.2527 13.6334C24.5002 13.6334 21.7418 13.6334 18.9358 13.6334C18.8466 11.9628 18.2046 10.5182 16.8491 9.47782C15.8148 8.68712 14.6079 8.24722 13.3001 8.39583C10.1552 8.75257 8.48472 11.0175 8.40741 13.6571C8.36578 15.0661 8.91869 16.368 9.94711 17.343C10.7913 18.1395 11.5344 18.7637 13.6449 18.8708Z" fill="#3A107D"/>
<path id="Vector_2" d="M27.394 15.2546C27.394 19.856 27.394 24.4038 27.394 28.9754C26.8589 29.0884 26.419 28.8209 25.9791 28.6247C24.8376 28.1194 23.9995 27.2812 23.4287 26.1814C23.0958 25.5334 22.9056 24.8319 22.8936 24.1007C22.8699 22.8106 22.8877 21.5206 22.8877 20.2306C22.8877 20.0878 22.8877 19.9511 22.8877 19.7609C22.7154 19.7609 22.5786 19.7609 22.4359 19.7609C21.3421 19.7609 20.2482 19.7609 19.1484 19.7609C17.9237 19.7609 16.7526 19.5172 15.7658 18.7918C14.8561 18.1201 14.1071 17.2699 13.798 16.1226C13.7207 15.8432 13.6612 15.5637 13.584 15.2546C18.2269 15.2546 22.7985 15.2546 27.394 15.2546Z" fill="#6EF5C3"/>
<path id="Vector_3" d="M35.1248 17.6618V15.2951H31.1748V28.5912H35.1248V22.5814C35.1248 19.9487 37.4421 19.2839 39.0748 19.5498V15.0292C37.4158 15.0292 35.6515 15.8801 35.1248 17.6618Z" fill="#3A0F7D"/>
<path id="Vector_4" d="M46.8553 28.9636C50.7264 28.9636 53.8337 25.9055 53.8337 21.9432C53.8337 17.9809 50.7264 14.9229 46.8553 14.9229C42.9843 14.9229 39.877 17.9809 39.877 21.9432C39.877 25.9055 42.9843 28.9636 46.8553 28.9636ZM46.8553 25.081C45.1436 25.081 43.827 23.8313 43.827 21.9432C43.827 20.0551 45.1436 18.8053 46.8553 18.8053C48.567 18.8053 49.8837 20.0551 49.8837 21.9432C49.8837 23.8313 48.567 25.081 46.8553 25.081Z" fill="#3A0F7D"/>
<path id="Vector_5" d="M70.0374 15.2952L68.1413 22.4219L66.0874 15.2952H62.4007L60.3467 22.4219L58.4507 15.2952H54.2373L58.4507 28.5914H62.1373L64.244 21.4912L66.3507 28.5914H70.0374L74.2508 15.2952H70.0374Z" fill="#3A0F7D"/>
<path id="Vector_6" d="M88.327 9.97668H74.6338V14.0719H79.3737V28.5913H83.5871V14.0719H88.327V9.97668Z" fill="#3A0F7D"/>
<path id="Vector_7" d="M97.2336 15.2951V16.545C96.3646 15.5344 95.0741 14.9229 93.3094 14.9229C89.86 14.9229 87.0156 17.9809 87.0156 21.9432C87.0156 25.9055 89.86 28.9636 93.3094 28.9636C95.0741 28.9636 96.3646 28.3519 97.2336 27.3414V28.5913H101.184V15.2951H97.2336ZM94.0993 25.1874C92.2829 25.1874 90.9657 23.9376 90.9657 21.9432C90.9657 19.9488 92.2829 18.699 94.0993 18.699C95.9164 18.699 97.2336 19.9488 97.2336 21.9432C97.2336 23.9376 95.9164 25.1874 94.0993 25.1874Z" fill="#3A0F7D"/>
<path id="Vector_8" d="M104.081 28.5913H108.031V9.17896H104.081V28.5913Z" fill="#3A0F7D"/>
</g>
</svg>
